<mxfile host="app.diagrams.net" modified="2024-12-28T15:00:00.000Z" agent="5.0" etag="abc123" version="22.1.16" type="device">
  <diagram name="AWS Status Page Infrastructure" id="aws-status-page">
    <mxGraphModel dx="1422" dy="794" grid="1" gridSize="10" guides="1" tooltips="1" connect="1" arrows="1" fold="1" page="1" pageScale="1" pageWidth="1169" pageHeight="827" math="0" shadow="0">
      <root>
        <mxCell id="0" />
        <mxCell id="1" parent="0" />
        
        <!-- AWS Cloud Container -->
        <mxCell id="aws-cloud" value="" style="sketch=0;outlineConnect=0;gradientColor=none;html=1;whiteSpace=wrap;fontSize=12;fontStyle=0;shape=mxgraph.aws4.group;grIcon=mxgraph.aws4.group_aws_cloud;strokeColor=#232F3E;fillColor=none;verticalAlign=top;align=left;spacingLeft=30;fontColor=#232F3E;dashed=0;" vertex="1" parent="1">
          <mxGeometry x="40" y="40" width="1080" height="740" as="geometry" />
        </mxCell>
        
        <!-- CloudWatch Alarms -->
        <mxCell id="cloudwatch" value="CloudWatch Alarms" style="sketch=0;points=[[0,0,0],[0.25,0,0],[0.5,0,0],[0.75,0,0],[1,0,0],[0,1,0],[0.25,1,0],[0.5,1,0],[0.75,1,0],[1,1,0],[0,0.25,0],[0,0.5,0],[0,0.75,0],[1,0.25,0],[1,0.5,0],[1,0.75,0]];outlineConnect=0;fontColor=#232F3E;gradientColor=#F78E04;gradientDirection=north;fillColor=#D05C17;strokeColor=#ffffff;dashed=0;verticalLabelPosition=bottom;verticalAlign=top;align=center;html=1;fontSize=12;fontStyle=0;aspect=fixed;shape=mxgraph.aws4.resourceIcon;resIcon=mxgraph.aws4.cloudwatch;" vertex="1" parent="1">
          <mxGeometry x="80" y="120" width="78" height="78" as="geometry" />
        </mxCell>
        
        <!-- Lambda Functions -->
        <mxCell id="lambda-status" value="Status Generator&#xa;Lambda" style="sketch=0;points=[[0,0,0],[0.25,0,0],[0.5,0,0],[0.75,0,0],[1,0,0],[0,1,0],[0.25,1,0],[0.5,1,0],[0.75,1,0],[1,1,0],[0,0.25,0],[0,0.5,0],[0,0.75,0],[1,0.25,0],[1,0.5,0],[1,0.75,0]];outlineConnect=0;fontColor=#232F3E;gradientColor=#F78E04;gradientDirection=north;fillColor=#D05C17;strokeColor=#ffffff;dashed=0;verticalLabelPosition=bottom;verticalAlign=top;align=center;html=1;fontSize=12;fontStyle=0;aspect=fixed;shape=mxgraph.aws4.resourceIcon;resIcon=mxgraph.aws4.lambda;" vertex="1" parent="1">
          <mxGeometry x="320" y="120" width="78" height="78" as="geometry" />
        </mxCell>
        
        <mxCell id="lambda-webhook" value="Webhook&#xa;Lambda" style="sketch=0;points=[[0,0,0],[0.25,0,0],[0.5,0,0],[0.75,0,0],[1,0,0],[0,1,0],[0.25,1,0],[0.5,1,0],[0.75,1,0],[1,1,0],[0,0.25,0],[0,0.5,0],[0,0.75,0],[1,0.25,0],[1,0.5,0],[1,0.75,0]];outlineConnect=0;fontColor=#232F3E;gradientColor=#F78E04;gradientDirection=north;fillColor=#D05C17;strokeColor=#ffffff;dashed=0;verticalLabelPosition=bottom;verticalAlign=top;align=center;html=1;fontSize=12;fontStyle=0;aspect=fixed;shape=mxgraph.aws4.resourceIcon;resIcon=mxgraph.aws4.lambda;" vertex="1" parent="1">
          <mxGeometry x="320" y="280" width="78" height="78" as="geometry" />
        </mxCell>
        
        <mxCell id="lambda-rss" value="RSS Feed&#xa;Lambda" style="sketch=0;points=[[0,0,0],[0.25,0,0],[0.5,0,0],[0.75,0,0],[1,0,0],[0,1,0],[0.25,1,0],[0.5,1,0],[0.75,1,0],[1,1,0],[0,0.25,0],[0,0.5,0],[0,0.75,0],[1,0.25,0],[1,0.5,0],[1,0.75,0]];outlineConnect=0;fontColor=#232F3E;gradientColor=#F78E04;gradientDirection=north;fillColor=#D05C17;strokeColor=#ffffff;dashed=0;verticalLabelPosition=bottom;verticalAlign=top;align=center;html=1;fontSize=12;fontStyle=0;aspect=fixed;shape=mxgraph.aws4.resourceIcon;resIcon=mxgraph.aws4.lambda;" vertex="1" parent="1">
          <mxGeometry x="320" y="440" width="78" height="78" as="geometry" />
        </mxCell>
        
        <!-- API Gateway -->
        <mxCell id="api-gateway" value="API Gateway" style="sketch=0;points=[[0,0,0],[0.25,0,0],[0.5,0,0],[0.75,0,0],[1,0,0],[0,1,0],[0.25,1,0],[0.5,1,0],[0.75,1,0],[1,1,0],[0,0.25,0],[0,0.5,0],[0,0.75,0],[1,0.25,0],[1,0.5,0],[1,0.75,0]];outlineConnect=0;fontColor=#232F3E;gradientColor=#FF4F8B;gradientDirection=north;fillColor=#BC1356;strokeColor=#ffffff;dashed=0;verticalLabelPosition=bottom;verticalAlign=top;align=center;html=1;fontSize=12;fontStyle=0;aspect=fixed;shape=mxgraph.aws4.resourceIcon;resIcon=mxgraph.aws4.api_gateway;" vertex="1" parent="1">
          <mxGeometry x="80" y="360" width="78" height="78" as="geometry" />
        </mxCell>
        
        <!-- DynamoDB -->
        <mxCell id="dynamodb" value="DynamoDB&#xa;(Status History)" style="sketch=0;points=[[0,0,0],[0.25,0,0],[0.5,0,0],[0.75,0,0],[1,0,0],[0,1,0],[0.25,1,0],[0.5,1,0],[0.75,1,0],[1,1,0],[0,0.25,0],[0,0.5,0],[0,0.75,0],[1,0.25,0],[1,0.5,0],[1,0.75,0]];outlineConnect=0;fontColor=#232F3E;gradientColor=#4D72F3;gradientDirection=north;fillColor=#3334B9;strokeColor=#ffffff;dashed=0;verticalLabelPosition=bottom;verticalAlign=top;align=center;html=1;fontSize=12;fontStyle=0;aspect=fixed;shape=mxgraph.aws4.resourceIcon;resIcon=mxgraph.aws4.dynamodb;" vertex="1" parent="1">
          <mxGeometry x="560" y="280" width="78" height="78" as="geometry" />
        </mxCell>
        
        <!-- S3 Bucket -->
        <mxCell id="s3" value="S3 Bucket&#xa;(Static Website)" style="sketch=0;points=[[0,0,0],[0.25,0,0],[0.5,0,0],[0.75,0,0],[1,0,0],[0,1,0],[0.25,1,0],[0.5,1,0],[0.75,1,0],[1,1,0],[0,0.25,0],[0,0.5,0],[0,0.75,0],[1,0.25,0],[1,0.5,0],[1,0.75,0]];outlineConnect=0;fontColor=#232F3E;gradientColor=#60A337;gradientDirection=north;fillColor=#277116;strokeColor=#ffffff;dashed=0;verticalLabelPosition=bottom;verticalAlign=top;align=center;html=1;fontSize=12;fontStyle=0;aspect=fixed;shape=mxgraph.aws4.resourceIcon;resIcon=mxgraph.aws4.s3;" vertex="1" parent="1">
          <mxGeometry x="800" y="280" width="78" height="78" as="geometry" />
        </mxCell>
        
        <!-- CloudFront -->
        <mxCell id="cloudfront" value="CloudFront CDN" style="sketch=0;points=[[0,0,0],[0.25,0,0],[0.5,0,0],[0.75,0,0],[1,0,0],[0,1,0],[0.25,1,0],[0.5,1,0],[0.75,1,0],[1,1,0],[0,0.25,0],[0,0.5,0],[0,0.75,0],[1,0.25,0],[1,0.5,0],[1,0.75,0]];outlineConnect=0;fontColor=#232F3E;gradientColor=#945DF2;gradientDirection=north;fillColor=#5A30B5;strokeColor=#ffffff;dashed=0;verticalLabelPosition=bottom;verticalAlign=top;align=center;html=1;fontSize=12;fontStyle=0;aspect=fixed;shape=mxgraph.aws4.resourceIcon;resIcon=mxgraph.aws4.cloudfront;" vertex="1" parent="1">
          <mxGeometry x="1000" y="280" width="78" height="78" as="geometry" />
        </mxCell>
        
        <!-- SNS -->
        <mxCell id="sns" value="SNS&#xa;(Notifications)" style="sketch=0;points=[[0,0,0],[0.25,0,0],[0.5,0,0],[0.75,0,0],[1,0,0],[0,1,0],[0.25,1,0],[0.5,1,0],[0.75,1,0],[1,1,0],[0,0.25,0],[0,0.5,0],[0,0.75,0],[1,0.25,0],[1,0.5,0],[1,0.75,0]];outlineConnect=0;fontColor=#232F3E;gradientColor=#FF4F8B;gradientDirection=north;fillColor=#BC1356;strokeColor=#ffffff;dashed=0;verticalLabelPosition=bottom;verticalAlign=top;align=center;html=1;fontSize=12;fontStyle=0;aspect=fixed;shape=mxgraph.aws4.resourceIcon;resIcon=mxgraph.aws4.sns;" vertex="1" parent="1">
          <mxGeometry x="560" y="120" width="78" height="78" as="geometry" />
        </mxCell>
        
        <!-- EventBridge -->
        <mxCell id="eventbridge" value="EventBridge&#xa;(Scheduled)" style="sketch=0;points=[[0,0,0],[0.25,0,0],[0.5,0,0],[0.75,0,0],[1,0,0],[0,1,0],[0.25,1,0],[0.5,1,0],[0.75,1,0],[1,1,0],[0,0.25,0],[0,0.5,0],[0,0.75,0],[1,0.25,0],[1,0.5,0],[1,0.75,0]];outlineConnect=0;fontColor=#232F3E;gradientColor=#FF4F8B;gradientDirection=north;fillColor=#BC1356;strokeColor=#ffffff;dashed=0;verticalLabelPosition=bottom;verticalAlign=top;align=center;html=1;fontSize=12;fontStyle=0;aspect=fixed;shape=mxgraph.aws4.resourceIcon;resIcon=mxgraph.aws4.eventbridge;" vertex="1" parent="1">
          <mxGeometry x="80" y="240" width="78" height="78" as="geometry" />
        </mxCell>
        
        <!-- External Users -->
        <mxCell id="users" value="Users" style="sketch=0;outlineConnect=0;fontColor=#232F3E;gradientColor=none;fillColor=#232F3D;strokeColor=none;dashed=0;verticalLabelPosition=bottom;verticalAlign=top;align=center;html=1;fontSize=12;fontStyle=0;aspect=fixed;pointerEvents=1;shape=mxgraph.aws4.users;" vertex="1" parent="1">
          <mxGeometry x="1000" y="120" width="78" height="78" as="geometry" />
        </mxCell>
        
        <!-- External Services -->
        <mxCell id="external-services" value="Your AWS Services&#xa;(Lambda, ALB, RDS, etc.)" style="sketch=0;outlineConnect=0;fontColor=#232F3E;gradientColor=none;fillColor=#232F3D;strokeColor=none;dashed=0;verticalLabelPosition=bottom;verticalAlign=top;align=center;html=1;fontSize=12;fontStyle=0;aspect=fixed;pointerEvents=1;shape=mxgraph.aws4.generic_saml_token;" vertex="1" parent="1">
          <mxGeometry x="80" y="480" width="78" height="78" as="geometry" />
        </mxCell>
        
        <!-- Webhook API -->
        <mxCell id="webhook-api" value="Webhook API&#xa;(Manual Updates)" style="sketch=0;outlineConnect=0;fontColor=#232F3E;gradientColor=none;fillColor=#232F3D;strokeColor=none;dashed=0;verticalLabelPosition=bottom;verticalAlign=top;align=center;html=1;fontSize=12;fontStyle=0;aspect=fixed;pointerEvents=1;shape=mxgraph.aws4.client;" vertex="1" parent="1">
          <mxGeometry x="80" y="600" width="78" height="78" as="geometry" />
        </mxCell>
        
        <!-- Email -->
        <mxCell id="email" value="Email&#xa;Notifications" style="sketch=0;outlineConnect=0;fontColor=#232F3E;gradientColor=none;fillColor=#232F3D;strokeColor=none;dashed=0;verticalLabelPosition=bottom;verticalAlign=top;align=center;html=1;fontSize=12;fontStyle=0;aspect=fixed;pointerEvents=1;shape=mxgraph.aws4.email;" vertex="1" parent="1">
          <mxGeometry x="800" y="120" width="78" height="78" as="geometry" />
        </mxCell>
        
        <!-- Connections -->
        
        <!-- CloudWatch to Lambda -->
        <mxCell id="cw-lambda" value="Alarm State Change" style="endArrow=classic;html=1;rounded=0;fontColor=#232F3E;strokeColor=#FF6B35;strokeWidth=2;" edge="1" parent="1" source="cloudwatch" target="lambda-status">
          <mxGeometry width="50" height="50" relative="1" as="geometry">
            <mxPoint x="200" y="159" as="sourcePoint" />
            <mxPoint x="300" y="159" as="targetPoint" />
          </mxGeometry>
        </mxCell>
        
        <!-- EventBridge to Lambda -->
        <mxCell id="eb-lambda" value="Every 5 minutes" style="endArrow=classic;html=1;rounded=0;fontColor=#232F3E;strokeColor=#FF6B35;strokeWidth=2;" edge="1" parent="1" source="eventbridge" target="lambda-status">
          <mxGeometry width="50" height="50" relative="1" as="geometry">
            <mxPoint x="200" y="279" as="sourcePoint" />
            <mxPoint x="300" y="200" as="targetPoint" />
          </mxGeometry>
        </mxCell>
        
        <!-- API Gateway to Webhook Lambda -->
        <mxCell id="api-webhook" value="POST /webhook" style="endArrow=classic;html=1;rounded=0;fontColor=#232F3E;strokeColor=#FF6B35;strokeWidth=2;" edge="1" parent="1" source="api-gateway" target="lambda-webhook">
          <mxGeometry width="50" height="50" relative="1" as="geometry">
            <mxPoint x="200" y="399" as="sourcePoint" />
            <mxPoint x="300" y="319" as="targetPoint" />
          </mxGeometry>
        </mxCell>
        
        <!-- API Gateway to RSS Lambda -->
        <mxCell id="api-rss" value="GET /rss" style="endArrow=classic;html=1;rounded=0;fontColor=#232F3E;strokeColor=#FF6B35;strokeWidth=2;" edge="1" parent="1" source="api-gateway" target="lambda-rss">
          <mxGeometry width="50" height="50" relative="1" as="geometry">
            <mxPoint x="200" y="439" as="sourcePoint" />
            <mxPoint x="300" y="479" as="targetPoint" />
          </mxGeometry>
        </mxCell>
        
        <!-- Lambda to DynamoDB -->
        <mxCell id="lambda-dynamo" value="Store Status&#xa;with TTL" style="endArrow=classic;html=1;rounded=0;fontColor=#232F3E;strokeColor=#4D72F3;strokeWidth=2;" edge="1" parent="1" source="lambda-status" target="dynamodb">
          <mxGeometry width="50" height="50" relative="1" as="geometry">
            <mxPoint x="420" y="159" as="sourcePoint" />
            <mxPoint x="540" y="319" as="targetPoint" />
          </mxGeometry>
        </mxCell>
        
        <!-- Webhook Lambda to DynamoDB -->
        <mxCell id="webhook-dynamo" value="Store Updates" style="endArrow=classic;html=1;rounded=0;fontColor=#232F3E;strokeColor=#4D72F3;strokeWidth=2;" edge="1" parent="1" source="lambda-webhook" target="dynamodb">
          <mxGeometry width="50" height="50" relative="1" as="geometry">
            <mxPoint x="420" y="319" as="sourcePoint" />
            <mxPoint x="540" y="319" as="targetPoint" />
          </mxGeometry>
        </mxCell>
        
        <!-- RSS Lambda to DynamoDB -->
        <mxCell id="rss-dynamo" value="Read History" style="endArrow=classic;html=1;rounded=0;fontColor=#232F3E;strokeColor=#4D72F3;strokeWidth=2;" edge="1" parent="1" source="lambda-rss" target="dynamodb">
          <mxGeometry width="50" height="50" relative="1" as="geometry">
            <mxPoint x="420" y="479" as="sourcePoint" />
            <mxPoint x="540" y="359" as="targetPoint" />
          </mxGeometry>
        </mxCell>
        
        <!-- Lambda to S3 -->
        <mxCell id="lambda-s3" value="Upload HTML" style="endArrow=classic;html=1;rounded=0;fontColor=#232F3E;strokeColor=#60A337;strokeWidth=2;" edge="1" parent="1" source="lambda-status" target="s3">
          <mxGeometry width="50" height="50" relative="1" as="geometry">
            <mxPoint x="420" y="159" as="sourcePoint" />
            <mxPoint x="780" y="319" as="targetPoint" />
          </mxGeometry>
        </mxCell>
        
        <!-- Lambda to CloudFront -->
        <mxCell id="lambda-cf" value="Invalidate Cache" style="endArrow=classic;html=1;rounded=0;fontColor=#232F3E;strokeColor=#945DF2;strokeWidth=2;" edge="1" parent="1" source="lambda-status" target="cloudfront">
          <mxGeometry width="50" height="50" relative="1" as="geometry">
            <mxPoint x="420" y="159" as="sourcePoint" />
            <mxPoint x="980" y="319" as="targetPoint" />
          </mxGeometry>
        </mxCell>
        
        <!-- S3 to CloudFront -->
        <mxCell id="s3-cf" value="Origin" style="endArrow=classic;html=1;rounded=0;fontColor=#232F3E;strokeColor=#60A337;strokeWidth=2;" edge="1" parent="1" source="s3" target="cloudfront">
          <mxGeometry width="50" height="50" relative="1" as="geometry">
            <mxPoint x="900" y="319" as="sourcePoint" />
            <mxPoint x="980" y="319" as="targetPoint" />
          </mxGeometry>
        </mxCell>
        
        <!-- CloudFront to Users -->
        <mxCell id="cf-users" value="HTTPS" style="endArrow=classic;html=1;rounded=0;fontColor=#232F3E;strokeColor=#945DF2;strokeWidth=2;" edge="1" parent="1" source="cloudfront" target="users">
          <mxGeometry width="50" height="50" relative="1" as="geometry">
            <mxPoint x="1039" y="260" as="sourcePoint" />
            <mxPoint x="1039" y="220" as="targetPoint" />
          </mxGeometry>
        </mxCell>
        
        <!-- Lambda to SNS -->
        <mxCell id="lambda-sns" value="Status Change&#xa;Notifications" style="endArrow=classic;html=1;rounded=0;fontColor=#232F3E;strokeColor=#FF4F8B;strokeWidth=2;" edge="1" parent="1" source="lambda-status" target="sns">
          <mxGeometry width="50" height="50" relative="1" as="geometry">
            <mxPoint x="420" y="159" as="sourcePoint" />
            <mxPoint x="540" y="159" as="targetPoint" />
          </mxGeometry>
        </mxCell>
        
        <!-- SNS to Email -->
        <mxCell id="sns-email" value="Email Alerts" style="endArrow=classic;html=1;rounded=0;fontColor=#232F3E;strokeColor=#FF4F8B;strokeWidth=2;" edge="1" parent="1" source="sns" target="email">
          <mxGeometry width="50" height="50" relative="1" as="geometry">
            <mxPoint x="660" y="159" as="sourcePoint" />
            <mxPoint x="780" y="159" as="targetPoint" />
          </mxGeometry>
        </mxCell>
        
        <!-- External Services to CloudWatch -->
        <mxCell id="services-cw" value="Metrics &amp; Alarms" style="endArrow=classic;html=1;rounded=0;fontColor=#232F3E;strokeColor=#D05C17;strokeWidth=2;" edge="1" parent="1" source="external-services" target="cloudwatch">
          <mxGeometry width="50" height="50" relative="1" as="geometry">
            <mxPoint x="119" y="460" as="sourcePoint" />
            <mxPoint x="119" y="220" as="targetPoint" />
          </mxGeometry>
        </mxCell>
        
        <!-- Webhook API to API Gateway -->
        <mxCell id="webhook-api-gw" value="Manual Status&#xa;Updates" style="endArrow=classic;html=1;rounded=0;fontColor=#232F3E;strokeColor=#BC1356;strokeWidth=2;" edge="1" parent="1" source="webhook-api" target="api-gateway">
          <mxGeometry width="50" height="50" relative="1" as="geometry">
            <mxPoint x="119" y="580" as="sourcePoint" />
            <mxPoint x="119" y="460" as="targetPoint" />
          </mxGeometry>
        </mxCell>
        
        <!-- Title -->
        <mxCell id="title" value="AWS Status Page Infrastructure" style="text;html=1;strokeColor=none;fillColor=none;align=center;verticalAlign=middle;whiteSpace=wrap;rounded=0;fontSize=20;fontStyle=1;fontColor=#232F3E;" vertex="1" parent="1">
          <mxGeometry x="440" y="60" width="280" height="30" as="geometry" />
        </mxCell>
        
        <!-- Legend -->
        <mxCell id="legend-box" value="" style="rounded=1;whiteSpace=wrap;html=1;fillColor=#F5F5F5;strokeColor=#CCCCCC;dashed=1;" vertex="1" parent="1">
          <mxGeometry x="440" y="600" width="400" height="120" as="geometry" />
        </mxCell>
        
        <mxCell id="legend-title" value="Data Flow Legend" style="text;html=1;strokeColor=none;fillColor=none;align=left;verticalAlign=middle;whiteSpace=wrap;rounded=0;fontSize=14;fontStyle=1;fontColor=#232F3E;" vertex="1" parent="1">
          <mxGeometry x="450" y="610" width="120" height="20" as="geometry" />
        </mxCell>
        
        <mxCell id="legend-1" value="🔴 Alarm Triggers" style="text;html=1;strokeColor=none;fillColor=none;align=left;verticalAlign=middle;whiteSpace=wrap;rounded=0;fontSize=11;fontColor=#FF6B35;" vertex="1" parent="1">
          <mxGeometry x="450" y="635" width="120" height="15" as="geometry" />
        </mxCell>
        
        <mxCell id="legend-2" value="🔵 Data Storage (TTL)" style="text;html=1;strokeColor=none;fillColor=none;align=left;verticalAlign=middle;whiteSpace=wrap;rounded=0;fontSize=11;fontColor=#4D72F3;" vertex="1" parent="1">
          <mxGeometry x="450" y="655" width="120" height="15" as="geometry" />
        </mxCell>
        
        <mxCell id="legend-3" value="🟢 Static Content" style="text;html=1;strokeColor=none;fillColor=none;align=left;verticalAlign=middle;whiteSpace=wrap;rounded=0;fontSize=11;fontColor=#60A337;" vertex="1" parent="1">
          <mxGeometry x="450" y="675" width="120" height="15" as="geometry" />
        </mxCell>
        
        <mxCell id="legend-4" value="🟣 CDN &amp; Caching" style="text;html=1;strokeColor=none;fillColor=none;align=left;verticalAlign=middle;whiteSpace=wrap;rounded=0;fontSize=11;fontColor=#945DF2;" vertex="1" parent="1">
          <mxGeometry x="450" y="695" width="120" height="15" as="geometry" />
        </mxCell>
        
        <mxCell id="legend-5" value="🟡 Notifications" style="text;html=1;strokeColor=none;fillColor=none;align=left;verticalAlign=middle;whiteSpace=wrap;rounded=0;fontSize=11;fontColor=#FF4F8B;" vertex="1" parent="1">
          <mxGeometry x="580" y="635" width="120" height="15" as="geometry" />
        </mxCell>
        
        <mxCell id="legend-6" value="⚫ External Systems" style="text;html=1;strokeColor=none;fillColor=none;align=left;verticalAlign=middle;whiteSpace=wrap;rounded=0;fontSize=11;fontColor=#232F3E;" vertex="1" parent="1">
          <mxGeometry x="580" y="655" width="120" height="15" as="geometry" />
        </mxCell>
        
        <mxCell id="legend-7" value="🕒 TTL: Auto-expires in 30 days" style="text;html=1;strokeColor=none;fillColor=none;align=left;verticalAlign=middle;whiteSpace=wrap;rounded=0;fontSize=11;fontColor=#666666;" vertex="1" parent="1">
          <mxGeometry x="580" y="675" width="180" height="15" as="geometry" />
        </mxCell>
        
        <mxCell id="legend-8" value="💰 Cost-optimized: Pay-per-request" style="text;html=1;strokeColor=none;fillColor=none;align=left;verticalAlign=middle;whiteSpace=wrap;rounded=0;fontSize=11;fontColor=#666666;" vertex="1" parent="1">
          <mxGeometry x="580" y="695" width="180" height="15" as="geometry" />
        </mxCell>
        
      </root>
    </mxGraphModel>
  </diagram>
</mxfile>
</mxAction>